<?xml version="1.0" encoding="UTF-8"?>
<!-- Generator: visioncortex VTracer -->
<svg id="svg" version="1.1" xmlns="http://www.w3.org/2000/svg" style="display: block;" viewBox="0 0 500 500"><path d="M0 0 C1.36508707 -0.00187028 2.73017361 -0.00417185 4.09525931 -0.00686532 C7.83180547 -0.01296271 11.56832919 -0.01285217 15.30487919 -0.01167095 C19.34041753 -0.01146642 23.37594876 -0.01699059 27.41148376 -0.02172852 C35.311909 -0.03002398 43.21232677 -0.03278284 51.112756 -0.03334089 C57.53553577 -0.03381651 63.95831308 -0.03587356 70.38109207 -0.03904152 C88.5998934 -0.04784456 106.81868885 -0.05246137 125.03749232 -0.05171105 C126.0190374 -0.05167109 127.00058247 -0.05163113 128.01187134 -0.05158997 C129.4859909 -0.05152864 129.4859909 -0.05152864 130.98989065 -0.05146609 C146.919391 -0.05105956 162.84886773 -0.06063152 178.77836125 -0.07472833 C195.14350407 -0.08909617 211.50863537 -0.09599831 227.87378466 -0.09513456 C237.05806198 -0.09480276 246.24231452 -0.09754233 255.42658615 -0.10831261 C263.2452377 -0.1174229 271.06385322 -0.11958845 278.88250779 -0.11280318 C282.86955208 -0.10954085 286.85652728 -0.10947098 290.84356499 -0.11815643 C294.49777975 -0.12603485 298.15187077 -0.12457638 301.80608256 -0.1158723 C303.74485801 -0.11361795 305.68363734 -0.12115536 307.62239778 -0.12911195 C325.16760167 -0.06002964 325.16760167 -0.06002964 330.03921509 4.44621277 C334.33368829 12.14047725 334.35569177 19.54781589 333.53921509 28.13371277 C332.04419088 32.91083664 329.41885011 35.92620505 325.16421509 38.50871277 C321.14161497 40.19358207 317.04629684 40.71609603 312.75015259 41.23527527 C312.0555896 41.32333435 311.36102661 41.41139343 310.64541626 41.50212097 C308.94391619 41.7171859 307.24163738 41.92607429 305.53921509 42.13371277 C305.51939575 43.1958197 305.49957642 44.25792664 305.47915649 45.35221863 C305.4017544 49.38008668 305.31327431 53.40765475 305.22183228 57.43522644 C305.18408743 59.16205322 305.14915182 60.88894423 305.11734009 62.6158905 C304.41923285 100.08461479 295.28022668 128.70207019 268.28921509 155.44621277 C267.54155884 156.16422058 266.79390259 156.88222839 266.02359009 157.62199402 C264.0696939 159.59739535 262.32068236 161.5750623 260.54190063 163.69914246 C256.9386228 167.83325642 252.99244132 171.43144298 248.88597107 175.05805969 C222.21631753 196.41774017 222.21631753 196.41774017 208.11332703 225.46008301 C208.05002524 227.64800983 208.12293128 229.76437734 208.28921509 231.94621277 C208.33845123 232.62231598 208.38768738 233.29841919 208.43841553 233.99501038 C209.30132593 242.61178897 212.23468703 248.35861902 218.53921509 254.13371277 C219.43124634 255.08117371 220.32327759 256.02863464 221.24234009 257.00480652 C226.42209579 262.22428427 231.75459189 267.02983418 237.51187134 271.61418152 C241.90705534 275.27210885 246.03821723 279.1934112 250.19570923 283.11686707 C253.32080288 286.06503086 256.45222247 288.97539404 259.72671509 291.75871277 C280.82863941 310.13193998 300.34418353 334.45801336 303.53921509 363.13371277 C303.99675708 371.57283291 303.98275094 380.03738159 304.07095337 388.48649597 C304.10475707 391.42765606 304.1498139 394.36849778 304.19546509 397.30949402 C304.20338074 398.65495049 304.20338074 398.65495049 304.2114563 400.02758789 C304.28652771 404.75626958 304.5978389 408.7305601 306.53921509 413.13371277 C309.5205901 415.37305667 312.77706794 415.55522623 316.41421509 416.00871277 C322.80978419 417.01239697 326.47813516 418.84981339 330.85171509 423.69621277 C334.8281447 429.43994443 334.18930505 436.42564163 333.53921509 443.13371277 C331.85373208 448.25523835 330.07101262 452.11251441 325.53921509 455.13371277 C318.05339977 456.33569341 310.59413653 456.27422405 303.02737427 456.26069641 C301.66896126 456.2618502 300.31054857 456.26343946 298.95213652 456.26542366 C295.23871985 456.26958149 291.52532903 456.26754236 287.8119123 456.26443744 C283.79958916 456.26216908 279.78727038 456.2656701 275.77494812 456.26841736 C267.92245213 456.27285867 260.0699657 456.27190587 252.21746933 456.26900472 C245.83427421 456.26674425 239.45108176 456.26644096 233.06788635 456.26752853 C231.70397245 456.26775838 231.70397245 456.26775838 230.31250474 456.26799288 C228.46519713 456.26831261 226.61788951 456.26863682 224.7705819 456.26896547 C207.45762065 456.27181546 190.1446647 456.26854077 172.83170432 456.2631651 C157.98371697 456.2586975 143.13573745 456.25947357 128.28775024 456.26408386 C111.03577245 456.2694381 93.78379929 456.27154081 76.53182077 456.2684716 C74.69139512 456.26815306 72.85096947 456.26783869 71.01054382 456.26752853 C70.10507284 456.26737426 69.19960186 456.26721998 68.26669237 456.26706103 C61.89284606 456.26619843 55.51900271 456.26765323 49.14515686 456.27000809 C41.37518329 456.27281571 33.60521982 456.27204749 25.8352474 456.26672734 C21.87264282 456.26410334 17.91005508 456.26306321 13.94745064 456.2663765 C10.31679728 456.26936626 6.68617628 456.26770213 3.05552584 456.26239894 C1.12699811 456.26076091 -0.80153189 456.26400841 -2.73005724 456.26745617 C-19.97943276 456.22862523 -19.97943276 456.22862523 -24.33578491 453.00871277 C-29.96370909 445.39446241 -30.45314457 438.5059984 -29.46078491 429.13371277 C-27.92656413 424.23410448 -24.80845811 420.80160314 -20.46078491 418.13371277 C-17.76245034 417.33748289 -15.20396809 416.68335793 -12.46078491 416.13371277 C-7.22160065 415.13927434 -7.22160065 415.13927434 -2.52328491 412.75871277 C-0.52774823 409.70671548 -0.33624627 406.49996364 -0.31893921 402.92619324 C-0.31190475 402.10368073 -0.3048703 401.28116821 -0.29762268 400.43373108 C-0.2934584 399.54839691 -0.28929413 398.66306274 -0.28500366 397.75090027 C-0.26176252 395.84073352 -0.2376436 393.93057729 -0.21273804 392.02043152 C-0.17800328 389.03712869 -0.14849282 386.05420248 -0.13485718 383.07072449 C0.07035904 345.44354087 15.18090556 320.07758127 41.54873657 293.95353699 C45.14256496 290.43663767 48.79107696 287.01390303 52.62905884 283.76261902 C54.91725449 281.81133561 57.13020569 279.78553589 59.35171509 277.75871277 C62.69855827 274.72674709 66.11629959 271.86379993 69.66421509 269.07121277 C74.80964105 264.91642916 79.48911115 260.37079783 84.16421509 255.69621277 C84.87593872 254.98521423 85.58766235 254.2742157 86.32095337 253.54167175 C94.04375601 245.73527273 94.1220807 237.33231923 94.29325867 226.68927002 C94.07276127 213.55838909 89.08354295 206.38927532 79.95766068 197.38736343 C76.49684999 194.05114004 72.92105197 190.8592314 69.30557251 187.69242859 C66.24025069 184.97513189 63.26570317 182.16207493 60.28335571 179.35441589 C56.40543551 175.71411405 52.50109879 172.11103509 48.53768253 168.56400394 C44.05447026 164.5462108 39.85315709 160.48822691 36.014328 155.84661865 C34.4011752 153.97342041 32.66331748 152.31406187 30.85171509 150.63371277 C5.39552956 125.3258157 -0.23590501 94.96559029 -1.02328491 60.44621277 C-1.066572 58.66560569 -1.11018917 56.88500661 -1.15414429 55.10441589 C-1.2601628 50.78093091 -1.36171654 46.45736237 -1.46078491 42.13371277 C-2.48994019 42.00819031 -3.51909546 41.88266785 -4.57943726 41.75334167 C-5.94356604 41.58091955 -7.30765926 41.40821588 -8.67172241 41.23527527 C-9.34839966 41.15350037 -10.0250769 41.07172546 -10.72225952 40.98747253 C-17.7487564 40.0851044 -22.9574056 38.53159732 -27.46078491 32.88371277 C-31.14280446 26.24359616 -30.7245639 16.57939216 -28.69125366 9.42668152 C-27.01074764 5.81794549 -25.08376275 2.84456342 -21.46078491 1.13371277 C-14.31913815 -0.07422799 -7.22799016 -0.00889924 0 0 Z " transform="translate(98.46078491210938,21.866287231445313)" style="fill: #F3F7FA;"/><path d="M0 0 C1.36508707 -0.00187028 2.73017361 -0.00417185 4.09525931 -0.00686532 C7.83180547 -0.01296271 11.56832919 -0.01285217 15.30487919 -0.01167095 C19.34041753 -0.01146642 23.37594876 -0.01699059 27.41148376 -0.02172852 C35.311909 -0.03002398 43.21232677 -0.03278284 51.112756 -0.03334089 C57.53553577 -0.03381651 63.95831308 -0.03587356 70.38109207 -0.03904152 C88.5998934 -0.04784456 106.81868885 -0.05246137 125.03749232 -0.05171105 C126.0190374 -0.05167109 127.00058247 -0.05163113 128.01187134 -0.05158997 C129.4859909 -0.05152864 129.4859909 -0.05152864 130.98989065 -0.05146609 C146.919391 -0.05105956 162.84886773 -0.06063152 178.77836125 -0.07472833 C195.14350407 -0.08909617 211.50863537 -0.09599831 227.87378466 -0.09513456 C237.05806198 -0.09480276 246.24231452 -0.09754233 255.42658615 -0.10831261 C263.2452377 -0.1174229 271.06385322 -0.11958845 278.88250779 -0.11280318 C282.86955208 -0.10954085 286.85652728 -0.10947098 290.84356499 -0.11815643 C294.49777975 -0.12603485 298.15187077 -0.12457638 301.80608256 -0.1158723 C303.74485801 -0.11361795 305.68363734 -0.12115536 307.62239778 -0.12911195 C325.16760167 -0.06002964 325.16760167 -0.06002964 330.03921509 4.44621277 C334.33368829 12.14047725 334.35569177 19.54781589 333.53921509 28.13371277 C332.04419088 32.91083664 329.41885011 35.92620505 325.16421509 38.50871277 C321.14161497 40.19358207 317.04629684 40.71609603 312.75015259 41.23527527 C312.0555896 41.32333435 311.36102661 41.41139343 310.64541626 41.50212097 C308.94391619 41.7171859 307.24163738 41.92607429 305.53921509 42.13371277 C305.51939575 43.1958197 305.49957642 44.25792664 305.47915649 45.35221863 C305.4017544 49.38008668 305.31327431 53.40765475 305.22183228 57.43522644 C305.18408743 59.16205322 305.14915182 60.88894423 305.11734009 62.6158905 C304.41923285 100.08461479 295.28022668 128.70207019 268.28921509 155.44621277 C267.54155884 156.16422058 266.79390259 156.88222839 266.02359009 157.62199402 C264.0696939 159.59739535 262.32068236 161.5750623 260.54190063 163.69914246 C256.9386228 167.83325642 252.99244132 171.43144298 248.88597107 175.05805969 C222.21631753 196.41774017 222.21631753 196.41774017 208.11332703 225.46008301 C208.05002524 227.64800983 208.12293128 229.76437734 208.28921509 231.94621277 C208.33845123 232.62231598 208.38768738 233.29841919 208.43841553 233.99501038 C209.30132593 242.61178897 212.23468703 248.35861902 218.53921509 254.13371277 C219.43124634 255.08117371 220.32327759 256.02863464 221.24234009 257.00480652 C226.42209579 262.22428427 231.75459189 267.02983418 237.51187134 271.61418152 C241.90705534 275.27210885 246.03821723 279.1934112 250.19570923 283.11686707 C253.32080288 286.06503086 256.45222247 288.97539404 259.72671509 291.75871277 C280.82863941 310.13193998 300.34418353 334.45801336 303.53921509 363.13371277 C303.99675708 371.57283291 303.98275094 380.03738159 304.07095337 388.48649597 C304.10475707 391.42765606 304.1498139 394.36849778 304.19546509 397.30949402 C304.20338074 398.65495049 304.20338074 398.65495049 304.2114563 400.02758789 C304.28652771 404.75626958 304.5978389 408.7305601 306.53921509 413.13371277 C309.5205901 415.37305667 312.77706794 415.55522623 316.41421509 416.00871277 C322.80978419 417.01239697 326.47813516 418.84981339 330.85171509 423.69621277 C334.8281447 429.43994443 334.18930505 436.42564163 333.53921509 443.13371277 C331.85373208 448.25523835 330.07101262 452.11251441 325.53921509 455.13371277 C318.05339977 456.33569341 310.59413653 456.27422405 303.02737427 456.26069641 C301.66896126 456.2618502 300.31054857 456.26343946 298.95213652 456.26542366 C295.23871985 456.26958149 291.52532903 456.26754236 287.8119123 456.26443744 C283.79958916 456.26216908 279.78727038 456.2656701 275.77494812 456.26841736 C267.92245213 456.27285867 260.0699657 456.27190587 252.21746933 456.26900472 C245.83427421 456.26674425 239.45108176 456.26644096 233.06788635 456.26752853 C231.70397245 456.26775838 231.70397245 456.26775838 230.31250474 456.26799288 C228.46519713 456.26831261 226.61788951 456.26863682 224.7705819 456.26896547 C207.45762065 456.27181546 190.1446647 456.26854077 172.83170432 456.2631651 C157.98371697 456.2586975 143.13573745 456.25947357 128.28775024 456.26408386 C111.03577245 456.2694381 93.78379929 456.27154081 76.53182077 456.2684716 C74.69139512 456.26815306 72.85096947 456.26783869 71.01054382 456.26752853 C70.10507284 456.26737426 69.19960186 456.26721998 68.26669237 456.26706103 C61.89284606 456.26619843 55.51900271 456.26765323 49.14515686 456.27000809 C41.37518329 456.27281571 33.60521982 456.27204749 25.8352474 456.26672734 C21.87264282 456.26410334 17.91005508 456.26306321 13.94745064 456.2663765 C10.31679728 456.26936626 6.68617628 456.26770213 3.05552584 456.26239894 C1.12699811 456.26076091 -0.80153189 456.26400841 -2.73005724 456.26745617 C-19.97943276 456.22862523 -19.97943276 456.22862523 -24.33578491 453.00871277 C-29.96370909 445.39446241 -30.45314457 438.5059984 -29.46078491 429.13371277 C-27.92656413 424.23410448 -24.80845811 420.80160314 -20.46078491 418.13371277 C-17.76245034 417.33748289 -15.20396809 416.68335793 -12.46078491 416.13371277 C-7.22160065 415.13927434 -7.22160065 415.13927434 -2.52328491 412.75871277 C-0.52774823 409.70671548 -0.33624627 406.49996364 -0.31893921 402.92619324 C-0.31190475 402.10368073 -0.3048703 401.28116821 -0.29762268 400.43373108 C-0.2934584 399.54839691 -0.28929413 398.66306274 -0.28500366 397.75090027 C-0.26176252 395.84073352 -0.2376436 393.93057729 -0.21273804 392.02043152 C-0.17800328 389.03712869 -0.14849282 386.05420248 -0.13485718 383.07072449 C0.07035904 345.44354087 15.18090556 320.07758127 41.54873657 293.95353699 C45.14256496 290.43663767 48.79107696 287.01390303 52.62905884 283.76261902 C54.91725449 281.81133561 57.13020569 279.78553589 59.35171509 277.75871277 C62.69855827 274.72674709 66.11629959 271.86379993 69.66421509 269.07121277 C74.80964105 264.91642916 79.48911115 260.37079783 84.16421509 255.69621277 C84.87593872 254.98521423 85.58766235 254.2742157 86.32095337 253.54167175 C89.85296104 250.15152693 89.85296104 250.15152693 92.53921509 246.13371277 C93.19921509 246.13371277 93.85921509 246.13371277 94.53921509 246.13371277 C94.63718384 247.06312683 94.73515259 247.99254089 94.83609009 248.95011902 C96.30720843 261.11220944 99.11170092 266.39988621 108.53921509 274.13371277 C109.19921509 274.79371277 109.85921509 275.45371277 110.53921509 276.13371277 C101.20002377 286.63061236 91.26294346 296.4943713 81.28921509 306.38371277 C78.0935237 309.55260323 74.90131442 312.72494456 71.71109009 315.89933777 C70.6358609 316.96211945 70.6358609 316.96211945 69.53890991 318.04637146 C65.52632169 322.039602 61.69995932 326.13297723 58.0112915 330.42791748 C56.12263225 332.6164357 54.14076715 334.71213327 52.16421509 336.82121277 C31.27920037 360.09003666 29.55012808 381.78449705 28.53921509 414.13371277 C110.04921509 414.13371277 191.55921509 414.13371277 275.53921509 414.13371277 C275.90356173 386.27482069 275.90356173 386.27482069 267.91421509 360.00871277 C267.56649048 359.34186462 267.21876587 358.67501648 266.86050415 357.98796082 C260.93594341 346.95934608 252.74323317 337.92610403 244.18814087 328.91081238 C243.04764279 327.68166142 241.92731903 326.4335943 240.82388306 325.17106628 C231.78785979 314.85707524 221.83248279 305.39672899 212.07925415 295.7696991 C209.58496044 293.30557446 207.09689839 290.83529139 204.60952759 288.36418152 C203.46110886 287.23595222 203.46110886 287.23595222 202.28948975 286.08493042 C198.84212313 282.65393476 195.74573077 279.53429934 193.53921509 275.13371277 C194.31845337 274.58843933 194.31845337 274.58843933 195.11343384 274.03215027 C201.92192489 269.1239959 206.94934049 264.75366405 208.53921509 256.13371277 C208.78831816 252.72704285 208.76932604 249.33709645 208.74234009 245.92277527 C208.75288749 243.93578954 208.76464371 241.94880992 208.77749634 239.96183777 C208.78779988 236.85899828 208.78920418 233.75702101 208.76919556 230.65422058 C208.75435328 227.6388441 208.77696378 224.62552045 208.80484009 221.61027527 C208.78947205 220.69436615 208.774104 219.77845703 208.75827026 218.83479309 C208.85160751 212.58729132 210.37387647 209.00276456 214.21591187 204.06983948 C215.82202681 202.046466 215.82202681 202.046466 215.91421509 198.69621277 C213.55013086 192.57108545 209.14929245 187.74379013 204.53921509 183.13371277 C199.54766883 183.42168659 195.8796964 184.69880862 191.53921509 187.13371277 C191.53921509 182.64665465 192.27034049 181.94165644 195.29812622 178.89596558 C196.11355896 178.10679497 196.11355896 178.10679497 196.94546509 177.30168152 C197.50358887 176.74684586 198.06171265 176.19201019 198.63674927 175.62036133 C200.42842659 173.84444176 202.23375221 172.08310381 204.03921509 170.32121277 C205.22497167 169.1469511 206.40987734 167.97182953 207.59390259 166.79582214 C212.82744525 161.61793456 218.09825076 156.54915112 223.69692993 151.764328 C227.33552631 148.54378928 230.69821679 145.03631285 234.10171509 141.57121277 C242.07399487 133.4554176 242.07399487 133.4554176 246.22280884 130.04386902 C249.71800003 127.10734975 252.38338073 123.83175944 255.03921509 120.13371277 C255.74086792 119.16836609 255.74086792 119.16836609 256.45669556 118.18351746 C262.15080588 110.14315926 268.62103778 100.34742086 268.7003479 90.28263855 C268.71475922 88.80562973 268.71475922 88.80562973 268.72946167 87.29878235 C268.73371155 86.23626251 268.73796143 85.17374268 268.74234009 84.07902527 C268.74804016 82.98532623 268.75374023 81.8916272 268.75961304 80.76478577 C268.76906295 78.449783 268.77559698 76.13476678 268.77944946 73.81974792 C268.78915772 70.27963293 268.82018292 66.7400978 268.85171509 63.20011902 C268.85824494 60.95142455 268.86349548 58.70272593 268.86734009 56.45402527 C268.88586029 54.86631821 268.88586029 54.86631821 268.90475464 53.24653625 C269.05637203 46.07652504 269.05637203 46.07652504 265.53921509 40.13371277 C259.95406478 36.50927432 255.14178112 35.55225162 248.57594299 35.6257782 C247.70833345 35.61953824 246.84072392 35.61329827 245.94682318 35.60686922 C243.0579866 35.59099499 240.17000034 35.60352151 237.28115845 35.61613464 C235.20268768 35.61071109 233.12422077 35.60358713 231.04576111 35.59489441 C225.41361684 35.57668712 219.78176624 35.58371771 214.14961696 35.59641075 C208.25120052 35.60655043 202.35280892 35.5971425 196.45439148 35.59086609 C186.55089816 35.5835931 176.64752425 35.59316892 166.74404907 35.61222839 C155.29797393 35.63400239 143.85218373 35.6269404 132.40611547 35.60492277 C122.57320497 35.5867661 112.74038021 35.58421161 102.90745836 35.59467745 C97.03703774 35.60091009 91.16675103 35.60175406 85.29633904 35.58853149 C79.77799969 35.57696962 74.26002754 35.58500524 68.74172783 35.60810852 C66.717683 35.6133935 64.69360722 35.61188547 62.66957474 35.60305786 C59.90446841 35.59211074 57.14053531 35.6058559 54.37550354 35.6257782 C53.17695225 35.61239387 53.17695225 35.61239387 51.95418781 35.59873915 C46.38264567 35.67648894 43.15018235 36.98083239 38.53921509 40.13371277 C34.3792774 44.62948985 35.07159658 50.35006974 35.07046509 56.13761902 C35.06285156 57.21188644 35.05523804 58.28615387 35.0473938 59.39297485 C35.03659749 61.666638 35.03373777 63.94035071 35.03823853 66.21403503 C35.03920497 69.66013143 34.99769776 73.10395664 34.95327759 76.54972839 C34.72746287 92.53078009 34.72746287 92.53078009 40.53921509 107.13371277 C41.17343384 108.25906433 41.80765259 109.38441589 42.46109009 110.54386902 C49.08930256 120.16044225 55.91150454 128.93620399 64.66616821 136.71891785 C69.68706183 141.19272353 74.40656669 145.94160444 79.11196899 150.74406433 C82.08321552 153.75672479 85.09035057 156.65024467 88.30484009 159.40324402 C93.65193453 164.01624583 98.57129201 169.05815772 103.53921509 174.07121277 C104.51423895 175.05126587 105.48949788 176.03108517 106.46499634 177.01066589 C108.82538127 179.3827359 111.18338413 181.75712137 113.53921509 184.13371277 C113.20921509 185.12371277 112.87921509 186.11371277 112.53921509 187.13371277 C112.03132446 186.84496277 111.52343384 186.55621277 111.00015259 186.25871277 C109.96761353 185.70183777 109.96761353 185.70183777 108.91421509 185.13371277 C108.24132446 184.76246277 107.56843384 184.39121277 106.87515259 184.00871277 C103.70643042 182.82176667 101.90240425 182.51027165 98.53921509 183.13371277 C96.13564756 185.23491089 94.40998443 187.70494151 92.60171509 190.32121277 C92.09575806 190.99474792 91.58980103 191.66828308 91.06851196 192.36222839 C88.23524302 196.25589572 88.23524302 196.25589572 87.55874634 200.89543152 C88.84723819 203.83688902 90.55697765 206.01727921 92.57827759 208.48527527 C92.89538696 209.02925964 93.21249634 209.57324402 93.53921509 210.13371277 C93.20921509 211.12371277 92.87921509 212.11371277 92.53921509 213.13371277 C86.00753928 206.62530389 79.47864014 200.11412561 72.95317745 193.5994873 C69.92240097 190.57390843 66.89071026 187.54925808 63.85684204 184.52677917 C60.92387605 181.60475375 57.99342704 178.68022502 55.06463814 175.75401306 C53.95208852 174.6432977 52.83866565 173.53345627 51.72431755 172.42454529 C46.30965027 167.03522638 40.93839686 161.65654457 36.014328 155.80583191 C34.38947933 153.96397931 32.64955145 152.30586387 30.85171509 150.63371277 C5.39552956 125.3258157 -0.23590501 94.96559029 -1.02328491 60.44621277 C-1.066572 58.66560569 -1.11018917 56.88500661 -1.15414429 55.10441589 C-1.2601628 50.78093091 -1.36171654 46.45736237 -1.46078491 42.13371277 C-2.48994019 42.00819031 -3.51909546 41.88266785 -4.57943726 41.75334167 C-5.94356604 41.58091955 -7.30765926 41.40821588 -8.67172241 41.23527527 C-9.34839966 41.15350037 -10.0250769 41.07172546 -10.72225952 40.98747253 C-17.7487564 40.0851044 -22.9574056 38.53159732 -27.46078491 32.88371277 C-31.14280446 26.24359616 -30.7245639 16.57939216 -28.69125366 9.42668152 C-27.01074764 5.81794549 -25.08376275 2.84456342 -21.46078491 1.13371277 C-14.31913815 -0.07422799 -7.22799016 -0.00889924 0 0 Z " transform="translate(98.46078491210938,21.866287231445313)" style="fill: #478CBF;"/><path d="M0 0 C1.32451172 0.50660156 1.32451172 0.50660156 2.67578125 1.0234375 C27.30616992 10.17715875 55.36606184 10.80059905 80 1 C80.99 0.67 81.98 0.34 83 0 C83.65379639 0.72598389 84.30759277 1.45196777 84.98120117 2.19995117 C94.094994 12.23625383 103.68758882 21.76946148 113.3125 31.3125 C116.49908006 34.47227258 119.68216947 37.63550459 122.86328125 40.80078125 C123.57696365 41.50616531 124.29064606 42.21154938 125.0259552 42.93830872 C129.02957252 46.92252015 132.84614131 51.00783429 136.52668762 55.29296875 C138.41584951 57.48181779 140.39805141 59.57799739 142.375 61.6875 C163.36948656 85.07829082 165 106.34915264 165 139 C83.49 139 1.98 139 -82 139 C-82 97.20486111 -82 97.20486111 -75.375 84.875 C-75.02727539 84.20815186 -74.67955078 83.54130371 -74.32128906 82.85424805 C-68.39663114 71.8254524 -60.20360902 62.79313358 -51.64916992 53.77709961 C-50.50821081 52.54763382 -49.38706586 51.29959096 -48.2824707 50.03735352 C-40.04628736 40.64443135 -31.05196116 31.98053528 -22.1875 23.1875 C-18.84474712 19.8714003 -15.50536732 16.5519561 -12.16796875 13.23046875 C-11.40751755 12.47831589 -10.64706635 11.72616302 -9.86357117 10.95121765 C-6.34487841 7.44886276 -2.98687936 3.98168986 0 0 Z " transform="translate(209,297)" style="fill: #D9E7F1;"/><path d="M0 0 C0.86604955 -0.00623996 1.7320991 -0.01247993 2.62439257 -0.01890898 C5.51400007 -0.03480928 8.40276054 -0.0222463 11.29237366 -0.00964355 C13.36907441 -0.01506602 15.44577131 -0.02218938 17.52246094 -0.03088379 C23.15473145 -0.04910622 28.78670859 -0.04205363 34.41898417 -0.02936745 C40.31693859 -0.01923292 46.21486807 -0.02863452 52.11282349 -0.03491211 C62.01809696 -0.04218774 71.92325111 -0.03260353 81.82850647 -0.0135498 C93.27397287 0.00821268 104.71915418 0.00117163 116.16461366 -0.02085543 C125.99667038 -0.03901891 135.82864136 -0.0415629 145.66070944 -0.03110075 C151.53061791 -0.0248703 157.40039246 -0.02401785 163.27029228 -0.0372467 C168.79026287 -0.04881805 174.30986669 -0.04075563 179.82979774 -0.01766968 C181.8534217 -0.01238925 183.87707662 -0.01388493 185.90068817 -0.02272034 C188.66768592 -0.0336858 191.43351569 -0.01990008 194.20043945 0 C194.99724292 -0.00892289 195.79404639 -0.01784577 196.61499542 -0.02703905 C202.21165604 0.05078974 206.47398831 1.41022076 211.16371155 4.50793457 C216.08329825 9.61026967 215.76256107 14.90431365 215.7301178 21.60949707 C215.73631638 22.68234955 215.74251495 23.75520203 215.74890137 24.86056519 C215.75599224 27.12826635 215.75283839 29.39601966 215.74012756 31.66369629 C215.72633942 35.10105657 215.76025399 38.53565091 215.79847717 41.97277832 C215.87451351 63.20829683 215.87451351 63.20829683 210.16371155 72.50793457 C209.21238342 74.19596191 209.21238342 74.19596191 208.24183655 75.91809082 C201.43212373 85.79799467 194.31931245 94.715773 185.39466858 102.73522949 C180.25241199 107.36207043 175.38026892 112.22849302 170.54017639 117.16906738 C167.57441996 120.17652593 164.56962885 123.06211841 161.3629303 125.81262207 C156.25001896 130.22452489 151.53885103 135.02495602 146.78871155 139.82043457 C145.88765686 140.72600098 144.98660217 141.63156738 144.0582428 142.5645752 C142.40425373 144.22724336 140.75129853 145.89094114 139.0997467 147.55603027 C137.79046433 148.87604447 136.47837078 150.19327533 135.16371155 151.50793457 C132.19371155 149.52793457 132.19371155 149.52793457 129.16371155 147.50793457 C129.27733417 146.02785048 129.40494063 144.54883383 129.53871155 143.07043457 C129.60832092 142.24672363 129.6779303 141.4230127 129.74964905 140.57434082 C129.88628967 139.89242676 130.0229303 139.2105127 130.16371155 138.50793457 C132.16371155 137.50793457 132.16371155 137.50793457 134.97621155 138.07043457 C138.67509806 138.57812488 139.87151749 138.184552 143.16371155 136.50793457 C145.16316922 134.81813199 147.00547834 133.13725466 148.85609436 131.2989502 C149.40141815 130.76852112 149.94674194 130.23809204 150.5085907 129.69158936 C152.30306725 127.94078964 154.08578459 126.17863328 155.86683655 124.41418457 C157.11282677 123.18546367 158.35881883 121.95674462 159.60481262 120.72802734 C162.21295715 118.15135884 164.81407591 115.56780338 167.41175842 112.98059082 C170.73286937 109.67592806 174.0808732 106.40000968 177.43616104 103.13010406 C180.01990993 100.60238094 182.58316385 98.05460471 185.14133453 95.50102234 C186.36665123 94.28475347 187.59943059 93.07595309 188.83983612 91.87507629 C196.77888218 84.61589593 196.77888218 84.61589593 200.52210999 74.88781738 C200.53165544 68.23671826 196.16263451 64.2557473 191.74183655 59.81262207 C190.96066467 59.04305176 190.96066467 59.04305176 190.16371155 58.25793457 C189.6429303 57.72941895 189.12214905 57.20090332 188.58558655 56.65637207 C184.5578049 52.64893275 182.00526963 50.78416828 176.41371155 49.94543457 C172.86406798 50.06321674 171.24082318 50.9260912 168.64198303 53.30969238 C167.94539581 53.94822144 167.24880859 54.58675049 166.53111267 55.24462891 C161.71346215 59.85044564 156.97563919 64.53121965 152.2613678 69.24230957 C151.13183594 70.36862204 150.00223159 71.49486181 148.87255859 72.62103271 C146.52179613 74.96584708 144.17306894 77.31267843 141.82557678 79.6607666 C138.81556328 82.67088248 135.79868233 85.67401497 132.7800684 88.67550278 C130.45271919 90.99175671 128.12990556 93.31251771 125.80836296 95.63459015 C124.69717576 96.74459721 123.58436643 97.85298289 122.46991158 98.95970917 C120.91913909 100.50071477 119.37479426 102.04788958 117.83192444 103.59680176 C116.95226517 104.47503601 116.0726059 105.35327026 115.16629028 106.25811768 C112.60982243 109.13020678 112.21055658 111.01137723 111.85121155 114.82043457 C112.22055709 119.17871195 113.52025338 121.08698871 116.16371155 124.50793457 C117.15371155 125.99293457 117.15371155 125.99293457 118.16371155 127.50793457 C114.53371155 127.17793457 110.90371155 126.84793457 107.16371155 126.50793457 C106.79246155 127.86918457 106.79246155 127.86918457 106.41371155 129.25793457 C105.1093477 132.64928057 103.76991013 134.07124484 101.16371155 136.50793457 C101.28552795 135.34777832 101.28552795 135.34777832 101.4098053 134.16418457 C101.47296936 133.12262207 101.53613342 132.08105957 101.60121155 131.00793457 C101.72302795 129.47652832 101.72302795 129.47652832 101.8473053 127.91418457 C99.94756544 118.44805223 88.02613229 110.22462492 81.3004303 103.51184082 C80.05954649 102.27028231 78.81881107 101.02857548 77.57821655 99.78672791 C74.99366996 97.20071545 72.40734428 94.61649947 69.81971741 92.03356934 C66.49959931 88.71918388 63.18403939 85.4002804 59.8697691 82.08004856 C57.31603131 79.52270561 54.75992709 76.9677387 52.20308876 74.41349602 C50.97870762 73.18978242 49.75507016 71.96532428 48.53218651 70.74011421 C46.83062851 69.03602659 45.12591563 67.33516021 43.42030334 65.63513184 C42.91484985 65.12765411 42.40939636 64.62017639 41.8886261 64.09732056 C38.50441925 60.73368796 36.67809706 59.3493858 31.91371155 59.19543457 C31.1660553 59.15805176 30.41839905 59.12066895 29.64808655 59.08215332 C23.74353287 60.09409727 19.54442809 64.85452226 15.47621155 68.94543457 C14.54421936 69.87227051 13.61222717 70.79910645 12.6519928 71.75402832 C9.54475114 75.19296925 7.33710848 77.84332406 6.85121155 82.50793457 C7.38200847 87.60358503 8.51083158 90.10247474 12.4410553 93.35949707 C18.06631665 98.19565751 23.25833637 103.45292021 28.49110413 108.70495605 C30.22265855 110.44187057 31.95949514 112.17337346 33.69691467 113.90441895 C38.84626817 119.05091274 43.90386061 124.20696278 48.63172913 129.74890137 C51.27492558 132.78383849 54.12162505 135.61083351 56.97621155 138.44543457 C57.83376038 139.30878418 57.83376038 139.30878418 58.70863342 140.1895752 C61.65446784 143.21937909 61.65446784 143.21937909 65.16371155 145.50793457 C65.49371155 144.51793457 65.82371155 143.52793457 66.16371155 142.50793457 C66.16371155 144.15793457 66.16371155 145.80793457 66.16371155 147.50793457 C62.69871155 149.48793457 62.69871155 149.48793457 59.16371155 151.50793457 C58.77368958 151.04717529 58.3836676 150.58641602 57.98182678 150.11169434 C52.9829294 144.29439022 47.66025347 138.85501719 42.22621155 133.44543457 C41.37091858 132.58627441 40.51562561 131.72711426 39.63441467 130.84191895 C35.25838567 126.47256581 30.81217301 122.27717875 26.12245178 118.24841309 C21.71132664 114.32881803 17.65201555 110.0324554 13.5191803 105.82434082 C10.10877773 102.37652982 6.6837152 99.05116359 2.9801178 95.91809082 C-0.6875396 92.75544649 -3.58957966 89.37853754 -6.39878845 85.44543457 C-6.86204529 84.80638184 -7.32530212 84.1673291 -7.80259705 83.50891113 C-13.47302765 75.47925028 -19.89888846 65.7075062 -20.01329041 55.67272949 C-20.02612564 54.69128464 -20.03896088 53.70983978 -20.05218506 52.69865417 C-20.05957199 51.63927139 -20.06695892 50.57988861 -20.0745697 49.48840332 C-20.08264145 48.39707596 -20.0907132 47.3057486 -20.09902954 46.18135071 C-20.11286506 43.8705504 -20.12358959 41.55972971 -20.13145447 39.24890137 C-20.14867049 35.7196167 -20.19256304 32.19126796 -20.23667908 28.66223145 C-20.24680588 26.41679562 -20.25532202 24.17135184 -20.2620697 21.92590332 C-20.27957779 20.87259323 -20.29708588 19.81928314 -20.31512451 18.73405457 C-20.2977724 12.85682577 -20.07573181 8.96804364 -15.83628845 4.50793457 C-10.38178831 0.76391762 -6.53860658 -0.07301721 0 0 Z " transform="translate(152.83628845214844,56.4920654296875)" style="fill: #D8E6F1;"/><path d="M0 0 C1.37093243 1.95967642 1.93567342 3.67285292 2.6484375 5.9453125 C3.52271339 8.15759409 3.52271339 8.15759409 5.2734375 9.8203125 C9.61707842 10.8442477 13.82474834 10.92317236 18.2734375 10.8203125 C18.55960937 9.89992187 18.84578125 8.97953125 19.140625 8.03125 C20.38183387 4.51306486 22.11267967 1.84537346 24.2734375 -1.1796875 C26.00361258 -0.72517566 27.73253627 -0.26589893 29.4609375 0.1953125 C30.42386719 0.45054687 31.38679688 0.70578125 32.37890625 0.96875 C35.09553957 1.76797546 37.66480925 2.7234487 40.2734375 3.8203125 C40.27730469 5.37492188 40.27730469 5.37492188 40.28125 6.9609375 C40.31877971 8.33077202 40.35792734 9.70056288 40.3984375 11.0703125 C40.39585937 11.75222656 40.39328125 12.43414062 40.390625 13.13671875 C40.42123341 15.44670705 40.42123341 15.44670705 41.2734375 18.8203125 C44.04751493 21.26709725 44.04751493 21.26709725 47.2734375 22.8203125 C48.2634375 23.4803125 49.2534375 24.1403125 50.2734375 24.8203125 C53.03496541 24.5346372 54.80919835 23.53010871 57.2734375 22.1953125 C60.2734375 20.8203125 60.2734375 20.8203125 62.19140625 20.90625 C65.27976557 22.26211507 66.61128109 24.37005109 68.5859375 27.0703125 C69.30394531 28.02421875 70.02195312 28.978125 70.76171875 29.9609375 C72.2734375 32.8203125 72.2734375 32.8203125 72.31640625 35.2421875 C71.2734375 37.8203125 71.2734375 37.8203125 68.76171875 40.57421875 C64.36950166 46.40469332 65.48528711 54.77537763 65.4609375 61.7578125 C65.43777115 63.31578987 65.41240138 64.87373612 65.38476562 66.43164062 C65.32218987 70.22798064 65.28963739 74.02350289 65.2734375 77.8203125 C64.00886719 77.95308594 62.74429688 78.08585937 61.44140625 78.22265625 C59.78123125 78.40086713 58.12107602 78.57926213 56.4609375 78.7578125 C55.62755859 78.84482422 54.79417969 78.93183594 53.93554688 79.02148438 C53.13310547 79.10849609 52.33066406 79.19550781 51.50390625 79.28515625 C50.76551514 79.3637085 50.02712402 79.44226074 49.26635742 79.52319336 C47.07074372 79.79183246 47.07074372 79.79183246 44.2734375 80.8203125 C43.9434375 84.1203125 43.6134375 87.4203125 43.2734375 90.8203125 C37.3334375 91.1503125 31.3934375 91.4803125 25.2734375 91.8203125 C24.2834375 87.3653125 24.2834375 87.3653125 23.2734375 82.8203125 C15.6834375 82.8203125 8.0934375 82.8203125 0.2734375 82.8203125 C-0.3865625 85.7903125 -1.0465625 88.7603125 -1.7265625 91.8203125 C-7.84141277 91.91737362 -13.65959551 91.59072101 -19.7265625 90.8203125 C-20.2215625 85.8703125 -20.2215625 85.8703125 -20.7265625 80.8203125 C-22.07492188 80.68753906 -23.42328125 80.55476563 -24.8125 80.41796875 C-26.57554163 80.23978901 -28.33856135 80.06139236 -30.1015625 79.8828125 C-30.99101562 79.79580078 -31.88046875 79.70878906 -32.796875 79.61914062 C-33.64765625 79.53212891 -34.4984375 79.44511719 -35.375 79.35546875 C-36.55328369 79.23764038 -36.55328369 79.23764038 -37.75537109 79.11743164 C-39.7265625 78.8203125 -39.7265625 78.8203125 -41.7265625 77.8203125 C-41.72019775 76.86777588 -41.71383301 75.91523926 -41.70727539 74.93383789 C-41.69271854 71.36045847 -41.72442088 67.78866232 -41.76928711 64.21557617 C-41.78233364 62.67656883 -41.78324709 61.13740447 -41.77124023 59.59838867 C-41.52471008 48.85091881 -41.52471008 48.85091881 -46.41015625 39.56640625 C-47.0745874 38.94306396 -47.73901855 38.31972168 -48.42358398 37.67749023 C-48.85356689 37.06462158 -49.2835498 36.45175293 -49.7265625 35.8203125 C-48.63465846 31.64414694 -46.3265744 28.80419786 -43.6015625 25.5078125 C-42.87710938 24.62480469 -42.15265625 23.74179688 -41.40625 22.83203125 C-40.57480469 21.83623047 -40.57480469 21.83623047 -39.7265625 20.8203125 C-36.69912558 21.33497678 -34.83650943 21.74884699 -32.2265625 23.4453125 C-29.84612946 25.01609199 -29.84612946 25.01609199 -27.2890625 24.8203125 C-23.77577535 23.44927361 -21.57493336 21.28890058 -18.7265625 18.8203125 C-18.0665625 18.8203125 -17.4065625 18.8203125 -16.7265625 18.8203125 C-16.7265625 13.8703125 -16.7265625 8.9203125 -16.7265625 3.8203125 C-2.82086268 -1.92737676 -2.82086268 -1.92737676 0 0 Z " transform="translate(238.7265625,187.1796875)" style="fill: #488CBF;"/><path d="M0 0 C0.87052505 -0.00571014 1.74105011 -0.01142029 2.63795471 -0.01730347 C3.59021942 -0.01842133 4.54248413 -0.01953918 5.52360535 -0.02069092 C7.03136284 -0.02813828 7.03136284 -0.02813828 8.56958008 -0.03573608 C11.9008604 -0.05036255 15.23209309 -0.05716058 18.56340027 -0.06268311 C20.87644451 -0.06843421 23.18948874 -0.07419195 25.50253296 -0.07995605 C30.355588 -0.09046746 35.20862646 -0.0963092 40.06169128 -0.09979248 C46.27931298 -0.10527709 52.49671567 -0.12930403 58.71426868 -0.15776443 C63.49351643 -0.17639106 68.27271144 -0.18159644 73.05199242 -0.18312836 C75.34410995 -0.18615541 77.63622655 -0.19418567 79.92830849 -0.20731354 C83.13602468 -0.22437396 86.3432059 -0.22249356 89.5509491 -0.21600342 C90.49714111 -0.2252182 91.44333313 -0.23443298 92.41819763 -0.243927 C98.82568436 -0.20332984 103.0249465 0.90235206 108.07902527 5.08184814 C110.69277704 9.9200695 110.26927175 14.67238825 110.16886902 20.07794189 C110.17595886 21.14979736 110.18304871 22.22165283 110.19035339 23.32598877 C110.14493478 28.96837785 109.99696666 33.31789672 106.73136902 38.14044189 C103.23293649 41.31089637 100.12277692 42.26128387 95.46273804 42.28761292 C94.59221298 42.29476822 93.72168793 42.30192352 92.82478333 42.30929565 C91.87251862 42.31198456 90.92025391 42.31467346 89.93913269 42.31744385 C88.93396103 42.32401505 87.92878937 42.33058624 86.89315796 42.33735657 C83.56188383 42.35709115 80.23065476 42.36875189 76.89933777 42.37872314 C75.76219141 42.38279867 74.62504505 42.3868742 73.45343971 42.39107323 C67.43597724 42.41193355 61.41853757 42.42623608 55.40104675 42.43560791 C49.18335975 42.44667882 42.96602997 42.48108706 36.74846935 42.52077961 C31.96922129 42.54691133 27.19005885 42.55529665 22.41074562 42.55888939 C20.11861569 42.56376337 17.82648979 42.57540033 15.53442955 42.59392738 C12.32659359 42.61824726 9.11968867 42.61736666 5.91178894 42.6104126 C4.49250092 42.62962769 4.49250092 42.62962769 3.04454041 42.64923096 C-2.5580754 42.60497132 -5.85672385 41.94263489 -10.26863098 38.14044189 C-14.36080648 32.2138429 -14.5100419 27.93299979 -14.58113098 20.89044189 C-14.61013489 19.94813721 -14.63913879 19.00583252 -14.66902161 18.03497314 C-14.73487141 10.81175639 -13.38793307 7.75883232 -8.70613098 2.32794189 C-6.01649559 0.10606918 -3.3319655 0.01310394 0 0 Z " transform="translate(257.2686309814453,386.85955810546875)" style="fill: #4ABFAD;"/><path d="M0 0 C4.95414264 2.81052323 8.78467434 6.4799802 12.75 10.5 C13.32621094 11.06847656 13.90242188 11.63695313 14.49609375 12.22265625 C15.32560547 13.05603516 15.32560547 13.05603516 16.171875 13.90625 C16.6678418 14.40447266 17.16380859 14.90269531 17.67480469 15.41601562 C20.24237246 18.48498757 21.42438319 21.38760608 21.41088867 25.39819336 C20.34423886 33.6421644 13.08645731 39.11551409 7.42578125 44.62890625 C6.13960409 45.91098362 4.85505669 47.19469785 3.57206726 48.47996521 C0.88640922 51.16085548 -1.81374301 53.82589056 -4.52612305 56.47973633 C-7.99917521 59.87898269 -11.44042976 63.30838335 -14.87224102 66.7492075 C-17.51932567 69.39881902 -20.17904059 72.03543616 -22.84311867 74.66795158 C-24.1168447 75.92830341 -25.38744691 77.19182045 -26.6548214 78.45855904 C-28.42794097 80.22553336 -30.21651725 81.97518927 -32.01049805 83.72094727 C-32.78929825 84.50550293 -32.78929825 84.50550293 -33.58383179 85.3059082 C-36.9375061 88.52484719 -39.3517213 89.77267872 -44 90 C-51.39796533 89.09200023 -54.87172308 85.95106898 -59.875 80.625 C-60.53757813 79.95210938 -61.20015625 79.27921875 -61.8828125 78.5859375 C-68.77554038 71.46905587 -68.77554038 71.46905587 -69.3125 65.5625 C-68.75709864 59.23092445 -64.90742248 55.61646861 -60.55053711 51.30761719 C-60.00711166 50.7622934 -59.46368622 50.2169696 -58.90379333 49.65512085 C-57.11648407 47.86412374 -55.3221069 46.0804 -53.52734375 44.296875 C-52.28052406 43.05124803 -51.03407448 41.8052505 -49.78797913 40.55889893 C-47.18099056 37.95347162 -44.5706848 35.35143052 -41.95776367 32.75195312 C-38.60442758 29.41565043 -35.25775618 26.07275851 -31.91330624 22.72755051 C-29.34260875 20.15712449 -26.76931689 17.58930942 -24.1951313 15.02237701 C-22.95972248 13.79015481 -21.72492231 12.55732209 -20.49073601 11.32387543 C-18.76968264 9.60498318 -17.04538134 7.88941997 -15.32006836 6.17480469 C-14.80833069 5.66261383 -14.29659302 5.15042297 -13.76934814 4.62271118 C-9.50558152 0.39766825 -6.0844656 -1.14345991 0 0 Z " transform="translate(295,72)" style="fill: #5449BF;"/><path d="M0 0 C4.95414264 2.81052323 8.78467434 6.4799802 12.75 10.5 C13.32621094 11.06847656 13.90242188 11.63695313 14.49609375 12.22265625 C15.32560547 13.05603516 15.32560547 13.05603516 16.171875 13.90625 C16.6678418 14.40447266 17.16380859 14.90269531 17.67480469 15.41601562 C20.24237246 18.48498757 21.42438319 21.38760608 21.41088867 25.39819336 C20.34423886 33.6421644 13.08645731 39.11551409 7.42578125 44.62890625 C6.13960409 45.91098362 4.85505669 47.19469785 3.57206726 48.47996521 C0.88640922 51.16085548 -1.81374301 53.82589056 -4.52612305 56.47973633 C-7.99917521 59.87898269 -11.44042976 63.30838335 -14.87224102 66.7492075 C-17.51932567 69.39881902 -20.17904059 72.03543616 -22.84311867 74.66795158 C-24.1168447 75.92830341 -25.38744691 77.19182045 -26.6548214 78.45855904 C-28.42794097 80.22553336 -30.21651725 81.97518927 -32.01049805 83.72094727 C-32.78929825 84.50550293 -32.78929825 84.50550293 -33.58383179 85.3059082 C-36.93446411 88.52192741 -39.35574794 89.76633715 -44 90 C-47.375 89.5625 -47.375 89.5625 -50 89 C-50.33 86.69 -50.66 84.38 -51 82 C-51.70125 81.896875 -52.4025 81.79375 -53.125 81.6875 C-59.77735315 80.0967199 -64.39644914 76.71935837 -68.3125 71.125 C-69.61387053 67.10258198 -69.71986564 63.44522836 -67.82106018 59.63311768 C-65.68171965 56.53979027 -63.21383924 53.94155685 -60.55053711 51.30761719 C-60.00711166 50.7622934 -59.46368622 50.2169696 -58.90379333 49.65512085 C-57.11648407 47.86412374 -55.3221069 46.0804 -53.52734375 44.296875 C-52.28052406 43.05124803 -51.03407448 41.8052505 -49.78797913 40.55889893 C-47.18099056 37.95347162 -44.5706848 35.35143052 -41.95776367 32.75195312 C-38.60442758 29.41565043 -35.25775618 26.07275851 -31.91330624 22.72755051 C-29.34260875 20.15712449 -26.76931689 17.58930942 -24.1951313 15.02237701 C-22.95972248 13.79015481 -21.72492231 12.55732209 -20.49073601 11.32387543 C-18.76968264 9.60498318 -17.04538134 7.88941997 -15.32006836 6.17480469 C-14.80833069 5.66261383 -14.29659302 5.15042297 -13.76934814 4.62271118 C-9.50558152 0.39766825 -6.0844656 -1.14345991 0 0 Z " transform="translate(333,106)" style="fill: #BD4AC0;"/><path d="M0 0 C0.74343155 -0.00511093 1.4868631 -0.01022186 2.25282288 -0.01548767 C4.71241286 -0.02939664 7.17172299 -0.02842574 9.63134766 -0.02612305 C11.3414419 -0.03000971 13.05153517 -0.03434432 14.7616272 -0.03910828 C18.34778979 -0.04657361 21.93385394 -0.04627728 25.52001953 -0.04101562 C30.11234649 -0.03522531 34.70426957 -0.05213971 39.29652977 -0.0753603 C42.82931875 -0.09010465 46.36201068 -0.09096831 49.89482498 -0.08785057 C51.58768131 -0.08836359 53.28054311 -0.09359768 54.9733696 -0.10366249 C57.34318882 -0.11602123 59.71222425 -0.10923873 62.08203125 -0.09765625 C62.7793486 -0.10529999 63.47666595 -0.11294373 64.19511414 -0.12081909 C68.52428373 -0.07413266 71.21988001 0.64246588 74.67041016 3.2746582 C78.59373829 8.66816594 78.08343521 14.44778564 77.98291016 20.8371582 C77.98613281 21.86518555 77.98935547 22.89321289 77.99267578 23.95239258 C77.94685852 30.37930449 77.72897563 34.72541664 73.55986023 39.88827515 C70.0413142 42.79422556 67.51663188 42.99158364 63.14550781 42.9375 C62.4049968 42.94786789 61.66448578 42.95823578 60.90153503 42.96891785 C58.46194475 42.99594564 56.02415805 42.98633509 53.58447266 42.97387695 C51.88202414 42.97978847 50.17957978 42.98703629 48.47714233 42.99555969 C44.91113612 43.00743357 41.34575427 43.00074512 37.77978516 42.98144531 C33.22081586 42.95858697 28.66371395 42.98530612 24.10492897 43.02650738 C20.58911586 43.05214824 17.0737456 43.04948811 13.55787277 43.03861427 C11.87782473 43.03713204 10.19774199 43.04476605 8.5177803 43.06186485 C-6.24388555 43.18770024 -6.24388555 43.18770024 -10.8515625 39.35205078 C-15.23081259 33.91358306 -14.58191769 29.44510059 -14.64208984 22.6496582 C-14.67109375 21.58102539 -14.70009766 20.51239258 -14.72998047 19.41137695 C-14.78486481 12.54661237 -14.08443365 8.07944376 -10.32958984 2.2746582 C-6.73591873 -0.12112254 -4.14985637 -0.01465843 0 0 Z " transform="translate(155.32958984375,386.725341796875)" style="fill: #49BF5E;"/><path d="M0 0 C1.74928284 1.12626648 1.74928284 1.12626648 3.47094727 2.7175293 C4.16350616 3.35653168 4.85606506 3.99553406 5.5696106 4.65390015 C10.84027499 9.74177 16.03972189 14.8971318 21.21484375 20.08203125 C22.47882249 21.34533532 23.74294955 22.60849101 25.00721741 23.87150574 C27.64030836 26.50313061 30.27160244 29.13653528 32.90161133 31.77124023 C36.27653114 35.15189205 39.65596843 38.52798695 43.03673458 41.90279102 C45.64040062 44.50285194 48.24169075 47.10527933 50.84225655 49.70844078 C52.08829881 50.95515063 53.33508574 52.20111669 54.58262444 53.44632912 C56.31784479 55.17901999 58.04984472 56.91486611 59.78100586 58.65161133 C60.29783432 59.16641556 60.81466278 59.68121979 61.34715271 60.21162415 C65.92216204 64.81411572 65.92216204 64.81411572 66.1328125 68.0234375 C66.13023437 68.79945313 66.12765625 69.57546875 66.125 70.375 C66.12886719 71.53128906 66.12886719 71.53128906 66.1328125 72.7109375 C66.00389788 74.9328189 65.61383717 76.86618508 65 79 C62.36 79 59.72 79 57 79 C55.02 75.37 53.04 71.74 51 68 C46.05 68.495 46.05 68.495 41 69 C45 66 45 66 47.6875 64.4375 C50.11355864 63.2091532 50.11355864 63.2091532 51 61 C44.79989482 64.21402511 38.99335051 67.49187797 33.55859375 71.8984375 C32 73 32 73 30 73 C29.67 77.62 29.34 82.24 29 87 C25.41546363 85.20773181 23.66297276 83.90982097 20.91796875 81.1484375 C20.15033203 80.37886719 19.38269531 79.60929687 18.59179688 78.81640625 C17.40166992 77.60791016 17.40166992 77.60791016 16.1875 76.375 C15.40568359 75.59253906 14.62386719 74.81007813 13.81835938 74.00390625 C10.33902515 70.49841161 6.9302261 66.97551407 3.72265625 63.21875 C-0.92505957 57.82430789 -6.00292266 52.84775868 -11.04443359 47.82519531 C-12.76387838 46.11116533 -14.47784307 44.3917829 -16.19140625 42.671875 C-17.28874156 41.5751996 -18.38638655 40.47883397 -19.484375 39.3828125 C-19.99377625 38.87138702 -20.50317749 38.35996155 -21.02801514 37.83303833 C-23.26583319 35.60998684 -25.36372368 33.75751755 -28 32 C-29.97571265 28.25654445 -30.65710715 25.18905807 -30 21 C-24.32076318 10.47602647 -12.86186212 -2.40179608 0 0 Z " transform="translate(189,115)" style="fill: #BFA94B;"/><path d="M0 0 C12.66970387 -0.18451025 12.66970387 -0.18451025 18 1 C18.33 4.3 18.66 7.6 19 11 C24.36489595 11.90483637 29.50317457 12.12303662 34.9375 12.0625 C35.71673828 12.05798828 36.49597656 12.05347656 37.29882812 12.04882812 C39.19925268 12.03716908 41.09963706 12.01923877 43 12 C43.66 9.03 44.32 6.06 45 3 C47.81256281 2.97315688 50.62487241 2.95323812 53.4375 2.9375 C54.23994141 2.92912109 55.04238281 2.92074219 55.86914062 2.91210938 C57.91295221 2.9034857 59.95683902 2.9477185 62 3 C64.04698414 5.04698414 63.70045693 9.30411241 64 12 C72.0821727 12.11564317 79.96102748 11.8574904 88 11 C88.33 7.7 88.66 4.4 89 1 C92.61867559 -0.2062252 95.92506251 -0.10816918 99.6875 -0.0625 C100.38939453 -0.05798828 101.09128906 -0.05347656 101.81445312 -0.04882812 C103.54300538 -0.03706927 105.27151365 -0.01913454 107 0 C107.55128705 6.61544458 106.90336824 11.516697 103 17 C93.81152953 27.58671597 78.27605259 30.51297494 65 32 C60.93670097 32.1651151 56.87878033 32.18507237 52.8125 32.1875 C51.75224609 32.19974609 50.69199219 32.21199219 49.59960938 32.22460938 C34.47291851 32.25226329 19.2584023 29.42954023 7 20 C2.62718995 15.23612564 -0.14624621 11.40720421 -0.0625 4.875 C-0.05347656 3.96492188 -0.04445312 3.05484375 -0.03515625 2.1171875 C-0.02355469 1.41851562 -0.01195312 0.71984375 0 0 Z " transform="translate(197,270)" style="fill: #498DBF;"/><path d="M0 0 C3.15835169 2.43456276 4.79981495 4.69972243 7 8 C7.47166457 12.16637037 7.26129908 14.47740183 5.375 18.25 C2.67226478 21.37948288 0.9310322 22.71485486 -3 24 C-7.64786409 24.301335 -10.28637429 23.57697398 -13.9375 20.625 C-16.85750898 16.90862493 -17.39410468 13.77618429 -17.359375 9.0703125 C-16.71820971 5.3766429 -14.64068388 3.57781045 -12 1 C-8.28334448 -0.85832776 -4.0467785 -0.57993204 0 0 Z " transform="translate(284,234)" style="fill: #ECF0F3;"/><path d="M0 0 C4.74608543 1.18220673 7.49126217 3.54939326 10.1484375 7.53515625 C10.93739787 11.44961348 10.88544989 15.02189886 9.12109375 18.64453125 C6.4577827 22.21528624 4.07320912 23.96647701 -0.3515625 24.72265625 C-4.90966804 24.8838014 -7.43433065 23.62693745 -10.8515625 20.53515625 C-13.14015639 17.71255712 -13.80174065 15.79921203 -14.4765625 12.22265625 C-13.15878488 4.44776827 -8.07760894 -0.75813736 0 0 Z " transform="translate(223.8515625,233.46484375)" style="fill: #EEF2F5;"/><path d="M0 0 C2.5 1.5625 2.5 1.5625 4 4 C4.56288002 7.94016013 4.60396028 10.05782196 2.4375 13.4375 C-0.94217804 15.60396028 -3.05983987 15.56288002 -7 15 C-9.4375 13.5 -9.4375 13.5 -11 11 C-11.6227188 7.48305406 -11.63278358 4.26556715 -10 1 C-6.73443285 -0.63278358 -3.51694594 -0.6227188 0 0 Z " transform="translate(227,239)" style="fill: #434244;"/><path d="M0 0 C2.4375 1 2.4375 1 4 3 C4.56153595 7.42209561 4.79893062 9.72171101 2.4375 13.5 C-0.94888329 15.58392818 -3.09385318 15.55802097 -7 15 C-9.4375 13.4375 -9.4375 13.4375 -11 11 C-11.56288002 7.05983987 -11.60396028 4.94217804 -9.4375 1.5625 C-6.08147594 -0.58879747 -3.91578329 -0.48947291 0 0 Z " transform="translate(281,239)" style="fill: #424143;"/><path d="M0 0 C1.62580966 0.11398665 3.25067157 0.24155659 4.875 0.375 C5.77992188 0.44460938 6.68484375 0.51421875 7.6171875 0.5859375 C10 1 10 1 12 3 C12 6.375 12 6.375 11 10 C8.01207626 12.64838695 6.12158978 13.90247045 2.125 14.25 C1.42375 14.1675 0.7225 14.085 0 14 C-0.33 15.98 -0.66 17.96 -1 20 C-1.66 20 -2.32 20 -3 20 C-2.45136137 13.2142064 -1.45732062 6.64990964 0 0 Z " transform="translate(255,402)" style="fill: #E8F6F3;"/><path d="M0 0 C-0.70588974 7.05889737 -1.78213386 14.01204964 -3 21 C-3.59554687 20.82339844 -4.19109375 20.64679688 -4.8046875 20.46484375 C-7.14964223 19.8241202 -7.14964223 19.8241202 -10.125 20.5625 C-11.548125 20.7790625 -11.548125 20.7790625 -13 21 C-13.66 20.34 -14.32 19.68 -15 19 C-14.91199208 15.03964379 -14.20814262 13.26596002 -11.75 10.125 C-9 8 -9 8 -6.1875 7.6875 C-5.465625 7.790625 -4.74375 7.89375 -4 8 C-3.855625 6.865625 -3.71125 5.73125 -3.5625 4.5625 C-2.84210526 0 -2.84210526 0 0 0 Z " transform="translate(173,397)" style="fill: #F3FAF4;"/><path d="M0 0 C0.70125 0.268125 1.4025 0.53625 2.125 0.8125 C3.02987275 4.34972984 3.41071809 6.1839202 1.875 9.5625 C0.125 11.8125 0.125 11.8125 -2.875 13.8125 C-5.4375 14.0625 -5.4375 14.0625 -7.875 13.8125 C-9.875 11.8125 -9.875 11.8125 -9.875 8.5 C-8.49670654 3.41754287 -5.8257368 -0.37993936 0 0 Z " transform="translate(183.875,404.1875)" style="fill: #ECF7ED;"/><path d="M0 0 C4.70588235 0.70588235 4.70588235 0.70588235 6 2 C6.57973514 6.1547685 6.14250261 7.77367233 3.875 11.375 C1 14 1 14 -2.25 14.4375 C-5 14 -5 14 -6 13 C-6.375 9.75 -6.375 9.75 -6 6 C-3.5625 3.125 -3.5625 3.125 -1 1 C-0.67 0.67 -0.34 0.34 0 0 Z " transform="translate(287,402)" style="fill: #E4F4F1;"/><path d="M0 0 C0.7940625 -0.01417969 1.588125 -0.02835938 2.40625 -0.04296875 C4.5 0.1875 4.5 0.1875 6.5 2.1875 C6.4140625 4.109375 6.4140625 4.109375 5.5 6.1875 C1.46401546 9.55855222 -3.23764179 12.58457934 -8.625 12.5625 C-10.048125 12.376875 -10.048125 12.376875 -11.5 12.1875 C-12.16 10.8675 -12.82 9.5475 -13.5 8.1875 C-10.53 8.1875 -7.56 8.1875 -4.5 8.1875 C-5.49 7.1975 -6.48 6.2075 -7.5 5.1875 C-7.3125 3.0625 -7.3125 3.0625 -6.5 1.1875 C-4.14653604 0.01076802 -2.6193967 0.02126134 0 0 Z " transform="translate(200.5,152.8125)" style="fill: #F7F4EB;"/><path d="M0 0 C0.721875 0.103125 1.44375 0.20625 2.1875 0.3125 C2.73048306 6.8282967 2.07127017 11.89600448 -1.8125 17.3125 C-4.8125 19.3125 -4.8125 19.3125 -7.8125 19.3125 C-7.4825 18.3225 -7.1525 17.3325 -6.8125 16.3125 C-5.8225 15.9825 -4.8325 15.6525 -3.8125 15.3125 C-2.60367904 13.31233534 -2.60367904 13.31233534 -1.8125 11.3125 C-3.0190625 11.5909375 -3.0190625 11.5909375 -4.25 11.875 C-5.5184375 12.0915625 -5.5184375 12.0915625 -6.8125 12.3125 C-7.8125 11.3125 -7.8125 11.3125 -8.1875 8.5625 C-7.8125 5.3125 -7.8125 5.3125 -5.625 2.4375 C-2.8125 0.3125 -2.8125 0.3125 0 0 Z " transform="translate(303.8125,402.6875)" style="fill: #F0F9F7;"/><path d="M0 0 C2.5 0.125 2.5 0.125 3.5 1.125 C3.62653198 3.61738569 3.68519825 6.06970441 3.6875 8.5625 C3.69974609 9.25666016 3.71199219 9.95082031 3.72460938 10.66601562 C3.72989842 12.48720901 3.62169207 14.3078692 3.5 16.125 C2.84 16.785 2.18 17.445 1.5 18.125 C-2.03571429 17.58928571 -2.03571429 17.58928571 -3.5 16.125 C-3.59975032 13.61363896 -3.63882183 11.13596585 -3.625 8.625 C-3.62886719 7.92246094 -3.63273438 7.21992188 -3.63671875 6.49609375 C-3.62455138 0.18122757 -3.62455138 0.18122757 0 0 Z " transform="translate(250.5,240.875)" style="fill: #FCFDFD;"/><path d="M0 0 C4.41194645 1.47064882 5.50267864 4.44181855 7.765625 8.3515625 C9.44538456 11.95560359 9.56910461 14.0975684 9 18 C8.67 18.66 8.34 19.32 8 20 C7.34 20 6.68 20 6 20 C6.04882812 16.97265625 6.04882812 16.97265625 6.09765625 13.9453125 C6.12649242 11.91814596 6.12649242 11.91814596 5 10 C4.34 11.32 3.68 12.64 3 14 C1.35 13.67 -0.3 13.34 -2 13 C-3.1845131 9.44646071 -3.26641894 6.72986522 -3 3 C-1.5 1.0625 -1.5 1.0625 0 0 Z " transform="translate(301,152)" style="fill: #F7EDF8;"/><path d="M0 0 C1.17369141 -0.02513672 1.17369141 -0.02513672 2.37109375 -0.05078125 C5.02377163 0.38896749 5.885467 1.26878454 7.5625 3.3125 C6.39880874 6.80357379 5.67276462 7.16472763 2.625 9 C1.91472656 9.43699219 1.20445312 9.87398437 0.47265625 10.32421875 C-1.4375 11.3125 -1.4375 11.3125 -3.4375 11.3125 C-3.1075 9.9925 -2.7775 8.6725 -2.4375 7.3125 C-4.0875 6.9825 -5.7375 6.6525 -7.4375 6.3125 C-6.4639024 1.44451199 -4.98132443 0.02453854 0 0 Z " transform="translate(220.4375,172.6875)" style="fill: #FAF9F5;"/><path d="M0 0 C4.15096454 0.24417438 6.45370849 0.56544994 9.75 3.1875 C14.15692635 8.69615794 15.333209 12.69327395 15.30078125 19.6328125 C14.98148873 22.14568612 14.26056636 23.8203753 13 26 C12.34 26 11.68 26 11 26 C11.03480469 25.23816406 11.06960938 24.47632812 11.10546875 23.69140625 C11.5407974 13.88306187 11.5407974 13.88306187 8 5 C5.09721922 3.39420638 2.25210848 2.59315186 -1 2 C-0.67 1.34 -0.34 0.68 0 0 Z " transform="translate(286,82)" style="fill: #E9E8F6;"/><path d="M0 0 C1.47906892 -0.02689216 2.95827483 -0.04634621 4.4375 -0.0625 C5.26121094 -0.07410156 6.08492187 -0.08570313 6.93359375 -0.09765625 C9 0 9 0 10 1 C9.60537976 5.73544283 9.03464238 9.65942958 7 14 C6.01 14 5.02 14 4 14 C4.59924224 9.80530429 5.57499941 5.99000166 7 2 C2.68248592 4.15445914 2.68248592 4.15445914 0.15625 8.046875 C-0.31761171 10.01200737 -0.66767445 12.00604667 -1 14 C-1.99 14 -2.98 14 -4 14 C-3.71572583 12.41532272 -3.42225182 10.8322943 -3.125 9.25 C-2.96257812 8.36828125 -2.80015625 7.4865625 -2.6328125 6.578125 C-2.03203736 4.13052256 -1.22002883 2.19400143 0 0 Z " transform="translate(192,404)" style="fill: #E7F5E9;"/><path d="M0 0 C1.32 0.33 2.64 0.66 4 1 C4 1.66 4 2.32 4 3 C2.68 3 1.36 3 0 3 C0.33 5.97 0.66 8.94 1 12 C1.99 11.01 2.98 10.02 4 9 C4.66 9 5.32 9 6 9 C5.773125 10.0725 5.54625 11.145 5.3125 12.25 C4.62538509 15.91495229 4.62538509 15.91495229 6.4375 18.25 C7.2109375 19.11625 7.2109375 19.11625 8 20 C8 20.99 8 21.98 8 23 C5.093479 21.6970768 3.19164592 20.29126619 1 18 C0.34 17.67 -0.32 17.34 -1 17 C-1.5625 14.375 -1.5625 14.375 -2 11 C-2.2475 9.80375 -2.495 8.6075 -2.75 7.375 C-3 4 -3 4 -1.5625 1.5625 C-1.046875 1.046875 -0.53125 0.53125 0 0 Z " transform="translate(242,127)" style="fill: #E8E7F5;"/><path d="M0 0 C0.99 0 1.98 0 3 0 C4.5703125 1.64453125 4.5703125 1.64453125 6.125 3.8125 C6.64320313 4.52019531 7.16140625 5.22789062 7.6953125 5.95703125 C9 8 9 8 10 11 C9.01 11 8.02 11 7 11 C6.34 12.98 5.68 14.96 5 17 C2.19294916 16.91979855 0.51793117 16.54452763 -1.4453125 14.48046875 C-5 9.65625 -5 9.65625 -5 6 C-1.13322435 7.466708 0.00985559 9.47201672 2 13 C2.66 13.33 3.32 13.66 4 14 C3.00956295 9.16371695 2.04301154 4.52381127 0 0 Z " transform="translate(253,124)" style="fill: #F2F1F9;"/><path d="M0 0 C0.66 0 1.32 0 2 0 C1.96519531 0.85722656 1.93039062 1.71445313 1.89453125 2.59765625 C1.65643684 11.72789921 1.65643684 11.72789921 5 20 C7.91765 21.9451 9.62537285 22.45276317 13 23 C13 23.99 13 24.98 13 26 C8.84903546 25.75582562 6.54629151 25.43455006 3.25 22.8125 C-1.15692635 17.30384206 -2.333209 13.30672605 -2.30078125 6.3671875 C-1.98148873 3.85431388 -1.26056636 2.1796247 0 0 Z " transform="translate(280,88)" style="fill: #E0DEF2;"/><path d="M0 0 C1.82421875 0.2265625 1.82421875 0.2265625 4 1 C5.51953125 2.9609375 5.51953125 2.9609375 6.8125 5.375 C7.25207031 6.16648437 7.69164062 6.95796875 8.14453125 7.7734375 C9 10 9 10 8 13 C5.03134491 10.45543849 3.6380249 7.51005335 2 4 C1.67 4 1.34 4 1 4 C0.8200072 9.21979128 1.02905192 13.07262981 3 18 C-0.40136289 16.62087597 -1.69605565 15.37388141 -3.25 12.0625 C-3.75273437 11.02802734 -3.75273437 11.02802734 -4.265625 9.97265625 C-5 8 -5 8 -5 5 C-4.34 5 -3.68 5 -3 5 C-1.3553326 2.53673288 -1.3553326 2.53673288 0 0 Z " transform="translate(264,113)" style="fill: #E8E7F5;"/><path d="M0 0 C0.70125 0.12375 1.4025 0.2475 2.125 0.375 C2.75 2.25 2.75 2.25 3.125 4.375 C0.36276722 7.13723278 -2.08206617 6.95356291 -5.875 7.375 C-5.545 8.035 -5.215 8.695 -4.875 9.375 C-2.235 9.045 0.405 8.715 3.125 8.375 C2.125 11.375 2.125 11.375 0.125 12.375 C-2.2079866 12.41522391 -4.54206666 12.41820247 -6.875 12.375 C-7.535 10.395 -8.195 8.415 -8.875 6.375 C-3.7809081 0.49316193 -3.7809081 0.49316193 0 0 Z " transform="translate(328.875,403.625)" style="fill: #EDF7F6;"/><path d="M0 0 C0.33 0.99 0.66 1.98 1 3 C1.99 3.66 2.98 4.32 4 5 C3.8125 6.8125 3.8125 6.8125 3 9 C-0.1156084 11.25016162 -3.40852194 12.66602243 -7 14 C-7 13.01 -7 12.02 -7 11 C-4.36 9.68 -1.72 8.36 1 7 C1 6.67 1 6.34 1 6 C-6.22032206 5.7006013 -6.22032206 5.7006013 -13 8 C-11.62087597 4.59863711 -10.37388141 3.30394435 -7.0625 1.75 C-6.37285156 1.41484375 -5.68320313 1.0796875 -4.97265625 0.734375 C-3 0 -3 0 0 0 Z " transform="translate(214,160)" style="fill: #F7F5ED;"/><path d="M0 0 C3.97446842 1.27750771 5.29623465 3.70957896 7.265625 7.1484375 C8 9 8 9 8 13 C7.34 13 6.68 13 6 13 C5.32845067 11.71086513 4.66291141 10.41859796 4 9.125 C3.62875 8.40570313 3.2575 7.68640625 2.875 6.9453125 C2 5 2 5 2 3 C1.34 3 0.68 3 0 3 C-0.29514183 9.29138785 -0.29514183 9.29138785 2 15 C2 15.99 2 16.98 2 18 C1.34 18 0.68 18 0 18 C-0.84069415 16.39967863 -1.67231505 14.79458829 -2.5 13.1875 C-3.19609375 11.84751953 -3.19609375 11.84751953 -3.90625 10.48046875 C-5 8 -5 8 -5 5 C-4.34 5 -3.68 5 -3 5 C-1.3553326 2.53673288 -1.3553326 2.53673288 0 0 Z " transform="translate(311,140)" style="fill: #F3E3F3;"/><path d="M0 0 C0.721875 0.103125 1.44375 0.20625 2.1875 0.3125 C2.5175 1.6325 2.8475 2.9525 3.1875 4.3125 C0.12632432 6.93636487 -0.54423127 7.3125 -4.8125 7.3125 C-4.8125 8.3025 -4.8125 9.2925 -4.8125 10.3125 C-2.1725 9.6525 0.4675 8.9925 3.1875 8.3125 C2.8575 9.3025 2.5275 10.2925 2.1875 11.3125 C-3.8671875 12.2890625 -3.8671875 12.2890625 -5.8125 12.3125 C-7.8125 10.3125 -7.8125 10.3125 -8.25 8 C-7.49426803 3.35764645 -4.68516044 0.52057338 0 0 Z " transform="translate(211.8125,405.6875)" style="fill: #F2FAF3;"/><path d="M0 0 C0.99 0.33 1.98 0.66 3 1 C2.73958333 2.98567708 2.47916667 4.97135417 2.21875 6.95703125 C1.946767 9.15471706 1.946767 9.15471706 2 12 C2.99 11.67 3.98 11.34 5 11 C5.73323796 8.98491642 5.73323796 8.98491642 6 7 C6.66 7 7.32 7 8 7 C7.67 9.31 7.34 11.62 7 14 C5.35 14.33 3.7 14.66 2 15 C-1.49195273 10.52593557 -2.65664119 7.69089033 -2 2 C-1.34 1.34 -0.68 0.68 0 0 Z " transform="translate(273,104)" style="fill: #E4E3F4;"/><path d="M0 0 C0 0.99 0 1.98 0 3 C-0.804375 3.12375 -1.60875 3.2475 -2.4375 3.375 C-3.7059375 3.684375 -3.7059375 3.684375 -5 4 C-5.33 4.66 -5.66 5.32 -6 6 C-4.68 6.33 -3.36 6.66 -2 7 C-1.67 8.32 -1.34 9.64 -1 11 C-3.35968744 13.09749995 -4.54616994 13.96905704 -7.75 14.1875 C-8.4925 14.125625 -9.235 14.06375 -10 14 C-10 13.34 -10 12.68 -10 12 C-8.02 11.67 -6.04 11.34 -4 11 C-5.63412443 9.29159719 -6.86906094 8.06546953 -9 7 C-8.6875 4.625 -8.6875 4.625 -8 2 C-4.77208445 -0.1519437 -3.71599191 -0.20086443 0 0 Z " transform="translate(356,402)" style="fill: #E5F4F1;"/><path d="M0 0 C0 0.66 0 1.32 0 2 C-0.99 2.495 -0.99 2.495 -2 3 C-2.33 3.99 -2.66 4.98 -3 6 C-2.030625 5.814375 -1.06125 5.62875 -0.0625 5.4375 C1.4534375 5.2209375 1.4534375 5.2209375 3 5 C4 6 4 6 4.1875 8.875 C4 12 4 12 2 15 C1.01 15 0.02 15 -1 15 C-0.690625 14.401875 -0.38125 13.80375 -0.0625 13.1875 C1.10209704 10.91043228 1.10209704 10.91043228 2 8 C0.5459375 8.2784375 0.5459375 8.2784375 -0.9375 8.5625 C-1.948125 8.706875 -2.95875 8.85125 -4 9 C-5 8 -5 8 -5.1875 5.0625 C-4.93164495 0.88353416 -4.22483241 0 0 0 Z " transform="translate(289,166)" style="fill: #F8EEF8;"/><path d="M0 0 C3.125 0.1875 3.125 0.1875 6.125 2.1875 C6.125 3.1775 6.125 4.1675 6.125 5.1875 C5.135 5.1875 4.145 5.1875 3.125 5.1875 C3.125 4.5275 3.125 3.8675 3.125 3.1875 C1.805 2.8575 0.485 2.5275 -0.875 2.1875 C-0.689375 3.156875 -0.50375 4.12625 -0.3125 5.125 C-0.168125 6.135625 -0.02375 7.14625 0.125 8.1875 C-0.875 9.1875 -0.875 9.1875 -3.8125 9.375 C-6.875 9.1875 -6.875 9.1875 -8.875 7.1875 C-8.545 6.1975 -8.215 5.2075 -7.875 4.1875 C-6.225 5.1775 -4.575 6.1675 -2.875 7.1875 C-3.060625 6.218125 -3.24625 5.24875 -3.4375 4.25 C-3.581875 3.239375 -3.72625 2.22875 -3.875 1.1875 C-2.875 0.1875 -2.875 0.1875 0 0 Z " transform="translate(187.875,137.8125)" style="fill: #F3EFE2;"/><path d="M0 0 C-1 3 -1 3 -3.0625 4.1875 C-3.701875 4.455625 -4.34125 4.72375 -5 5 C-3.68 5.66 -2.36 6.32 -1 7 C-1.25 9.375 -1.25 9.375 -2 12 C-3.8125 13.375 -3.8125 13.375 -6 14 C-8.25 13.625 -8.25 13.625 -10 13 C-6.25 11 -6.25 11 -4 11 C-4.680625 10.443125 -5.36125 9.88625 -6.0625 9.3125 C-8 7 -8 7 -7.9375 4.375 C-6.28159519 0.18004116 -4.31983638 0 0 0 Z " transform="translate(344,402)" style="fill: #ECF7F5;"/><path d="M0 0 C3.38644439 1.1288148 3.68598077 1.624253 5.48046875 4.52734375 C5.92197266 5.23697266 6.36347656 5.94660156 6.81835938 6.67773438 C7.27017578 7.42345703 7.72199219 8.16917969 8.1875 8.9375 C8.65091797 9.67935547 9.11433594 10.42121094 9.59179688 11.18554688 C13 16.72199466 13 16.72199466 13 19 C10.6291845 18.62194429 9.34061982 18.38387932 7.71972656 16.55712891 C7.36362305 15.95304199 7.00751953 15.34895508 6.640625 14.7265625 C6.24746094 14.0665625 5.85429687 13.4065625 5.44921875 12.7265625 C5.05347656 12.03304687 4.65773438 11.33953125 4.25 10.625 C3.83878906 9.93921875 3.42757813 9.2534375 3.00390625 8.546875 C0 3.41728094 0 3.41728094 0 0 Z " transform="translate(322,119)" style="fill: #F5E7F5;"/><path d="M0 0 C4.18837725 2.09418863 5.02950186 2.9604788 7 7 C7 7.99 7 8.98 7 10 C6.34 10 5.68 10 5 10 C4.34 11.32 3.68 12.64 3 14 C1.35 13.67 -0.3 13.34 -2 13 C-2.33 11.68 -2.66 10.36 -3 9 C-0.525 9.99 -0.525 9.99 2 11 C1.34 7.37 0.68 3.74 0 0 Z " transform="translate(322,132)" style="fill: #F3E2F3;"/><path d="M0 0 C0.99 0.33 1.98 0.66 3 1 C3 4.66666667 3 8.33333333 3 12 C1.02 11.34 -0.96 10.68 -3 10 C-3.36923077 3.47692308 -3.36923077 3.47692308 -1.5 1.0625 C-1.005 0.711875 -0.51 0.36125 0 0 Z " transform="translate(321,131)" style="fill: #F0DBF0;"/><path d="M0 0 C0.99 0 1.98 0 3 0 C6.22889075 4.94423897 7.5964336 7.9163773 7 14 C6.67 14.66 6.34 15.32 6 16 C5.34 16 4.68 16 4 16 C4.03255208 13.98177083 4.06510417 11.96354167 4.09765625 9.9453125 C4.12649242 7.91814596 4.12649242 7.91814596 3 6 C2.34 6.66 1.68 7.32 1 8 C0 7 0 7 -0.0625 3.4375 C-0.041875 2.303125 -0.02125 1.16875 0 0 Z " transform="translate(303,156)" style="fill: #FBF5FB;"/><path d="M0 0 C-1.10815825 3.21365891 -1.98529554 3.9914224 -5 5.75 C-8 7 -8 7 -10 7 C-10 7.66 -10 8.32 -10 9 C-14.625 11.125 -14.625 11.125 -18 10 C-15.79806285 8.5320419 -13.59575914 7.06471754 -11.390625 5.6015625 C-9.97438092 4.65277153 -8.56504284 3.69329944 -7.171875 2.7109375 C-3.3102518 0 -3.3102518 0 0 0 Z " transform="translate(240,176)" style="fill: #F3F2EC;"/><path d="M0 0 C-0.60714286 5.46428571 -0.60714286 5.46428571 -2.375 7.875 C-4 9 -4 9 -7 9 C-6 0 -6 0 0 0 Z " transform="translate(184,407)" style="fill: #4DC061;"/><path d="M0 0 C0.36923077 5.41538462 0.36923077 5.41538462 -1.5 8.375 C-1.995 8.91125 -2.49 9.4475 -3 10 C-4.32 9.67 -5.64 9.34 -7 9 C-6.69740962 5.36891547 -6.2363202 4.21859619 -3.5 1.6875 C-1 0 -1 0 0 0 Z " transform="translate(290,404)" style="fill: #4DC0AE;"/><path d="M0 0 C0.3125 2.25 0.3125 2.25 0 5 C-4.10810811 9 -4.10810811 9 -7 9 C-7.25 6.1875 -7.25 6.1875 -7 3 C-4.54157496 0.45680168 -3.57478534 0 0 0 Z " transform="translate(264,405)" style="fill: #4FC1AF;"/><path d="M0 0 C3.27275026 0 5.846632 0.29925156 9 1 C9 1.66 9 2.32 9 3 C7.02 3.33 5.04 3.66 3 4 C2.01 6.97 1.02 9.94 0 13 C-0.66 13 -1.32 13 -2 13 C-1.48041715 8.62065881 -0.94324258 4.31196609 0 0 Z " transform="translate(311,403)" style="fill: #F2FAF8;"/><path d="M0 0 C3.27275026 0 5.846632 0.29925156 9 1 C9 1.66 9 2.32 9 3 C7.02 3.33 5.04 3.66 3 4 C2.01 6.97 1.02 9.94 0 13 C-0.66 13 -1.32 13 -2 13 C-1.48041715 8.62065881 -0.94324258 4.31196609 0 0 Z " transform="translate(271,403)" style="fill: #F2FAF8;"/><path d="M0 0 C0.721875 0.103125 1.44375 0.20625 2.1875 0.3125 C2.1875 1.9625 2.1875 3.6125 2.1875 5.3125 C1.5275 5.3125 0.8675 5.3125 0.1875 5.3125 C0.1875 4.3225 0.1875 3.3325 0.1875 2.3125 C-3.69984369 5.52068244 -3.69984369 5.52068244 -5.125 10.125 C-4.9703125 11.2078125 -4.9703125 11.2078125 -4.8125 12.3125 C-5.8025 11.9825 -6.7925 11.6525 -7.8125 11.3125 C-8.28433746 7.25469787 -8.14579645 5.75054676 -5.625 2.4375 C-2.8125 0.3125 -2.8125 0.3125 0 0 Z " transform="translate(303.8125,402.6875)" style="fill: #F5FBF9;"/><path d="M0 0 C0.37254569 3.35291118 0.31050198 4.6038423 -1.8125 7.3125 C-4 9 -4 9 -7 9 C-6.51058824 3.49411765 -6.51058824 3.49411765 -4.0625 1.125 C-2 0 -2 0 0 0 Z " transform="translate(168,407)" style="fill: #54C267;"/><path d="M0 0 C2.11161731 9.41002278 2.11161731 9.41002278 3 14 C2.34 14 1.68 14 1 14 C0.15930585 12.39967863 -0.67231505 10.79458829 -1.5 9.1875 C-2.19609375 7.84751953 -2.19609375 7.84751953 -2.90625 6.48046875 C-4 4 -4 4 -4 1 C-1 0 -1 0 0 0 Z " transform="translate(310,144)" style="fill: #F9F0F9;"/><path d="M0 0 C3.87909417 1.47138055 5.01056241 3.45361125 7 7 C8.58245275 8.75149165 8.58245275 8.75149165 10 10 C8.68 10.33 7.36 10.66 6 11 C4.99126984 9.73608512 3.99328178 8.46359117 3 7.1875 C2.443125 6.47980469 1.88625 5.77210938 1.3125 5.04296875 C0 3 0 3 0 0 Z " transform="translate(248,130)" style="fill: #E5E4F4;"/><path d="M0 0 C0.99 0 1.98 0 3 0 C3.61875 0.639375 4.2375 1.27875 4.875 1.9375 C7.28839022 4.27990815 8.7163874 4.63515416 12 5 C12 5.99 12 6.98 12 8 C7.6305794 7.74297526 5.48177009 7.39976667 2.0625 4.5625 C0 2 0 2 0 0 Z " transform="translate(281,106)" style="fill: #ECEBF7;"/><path d="M0 0 C0.33 1.32 0.66 2.64 1 4 C1.66 4 2.32 4 3 4 C1.69386058 7.91841827 0.16870152 10.32640809 -3 13 C-3.66 13 -4.32 13 -5 13 C-3.92598892 10.08482708 -3.22189824 8.22189824 -1 6 C-0.60235737 4.01178687 -0.26224651 2.01055661 0 0 Z " transform="translate(231,244)" style="fill: #E4E8EB;"/><path d="M0 0 C3 1 3 1 4.38671875 3.28515625 C4.81597656 4.20167969 5.24523437 5.11820313 5.6875 6.0625 C6.34298828 7.44115234 6.34298828 7.44115234 7.01171875 8.84765625 C7.33785156 9.55792969 7.66398437 10.26820313 8 11 C5.56979231 10.6221946 4.33554284 10.40389416 2.734375 8.4765625 C2.40953125 7.86554688 2.0846875 7.25453125 1.75 6.625 C1.41484375 6.01914063 1.0796875 5.41328125 0.734375 4.7890625 C0 3 0 3 0 0 Z " transform="translate(292,162)" style="fill: #F6E9F6;"/><path d="M0 0 C1.65 0 3.3 0 5 0 C5.625 1.875 5.625 1.875 6 4 C5.34 4.66 4.68 5.32 4 6 C1.375 5.625 1.375 5.625 -1 5 C-0.67 3.35 -0.34 1.7 0 0 Z " transform="translate(326,404)" style="fill: #CBEBE6;"/><path d="M0 0 C1.134375 0.020625 2.26875 0.04125 3.4375 0.0625 C3.4375 3.0625 3.4375 3.0625 2.4375 4.0625 C0.10452567 4.10342937 -2.22955225 4.10491723 -4.5625 4.0625 C-4.5625 -0.28271095 -4.43767807 0.077854 0 0 Z " transform="translate(220.5625,174.9375)" style="fill: #C7B362;"/><path d="M0 0 C0 0.66 0 1.32 0 2 C-1.43294498 2.84114171 -2.87154405 3.67265687 -4.3125 4.5 C-5.51326172 5.19609375 -5.51326172 5.19609375 -6.73828125 5.90625 C-9 7 -9 7 -12 7 C-10.77887968 3.33663903 -9.13279518 2.64957986 -5.88671875 0.76953125 C-4 0 -4 0 0 0 Z " transform="translate(198,146)" style="fill: #F6F4EA;"/><path d="M0 0 C0.66 0.33 1.32 0.66 2 1 C2 4.00591863 0.0647965 4.9352035 -2 7 C-2.33 7.99 -2.66 8.98 -3 10 C-3.99 10.33 -4.98 10.66 -6 11 C-5.62671065 5.64951939 -4.0042343 3.49087093 0 0 Z " transform="translate(164,405)" style="fill: #E0F3E3;"/><path d="M0 0 C1.98 0.495 1.98 0.495 4 1 C4.25 6.625 4.25 6.625 2 10 C1.01 10 0.02 10 -1 10 C-0.649375 9.46375 -0.29875 8.9275 0.0625 8.375 C1.28924249 5.26725237 0.72856431 3.20568297 0 0 Z " transform="translate(289,171)" style="fill: #F2E0F2;"/><path d="M0 0 C0.33 0 0.66 0 1 0 C1.05437607 1.58294782 1.09296271 3.16644256 1.125 4.75 C1.14820313 5.63171875 1.17140625 6.5134375 1.1953125 7.421875 C0.99139502 10.1135858 0.36551721 11.69904974 -1 14 C-1.66 14 -2.32 14 -3 14 C-2.88512252 12.41590006 -2.75765492 10.83271037 -2.625 9.25 C-2.55539062 8.36828125 -2.48578125 7.4865625 -2.4140625 6.578125 C-2.00149945 4.00933618 -1.28839043 2.24158985 0 0 Z " transform="translate(300,94)" style="fill: #C7C4E8;"/><path d="M0 0 C3.82601307 1.45124634 5.22329124 3.35774704 7 7 C7 7.99 7 8.98 7 10 C5.1875 9.5 5.1875 9.5 3 8 C1.73847391 5.4136076 0.84356955 2.74799171 0 0 Z " transform="translate(322,132)" style="fill: #FAF4FA;"/><path d="M0 0 C0.66 0.33 1.32 0.66 2 1 C2 2.32 2 3.64 2 5 C0.824375 5.12375 0.824375 5.12375 -0.375 5.25 C-3.14749104 5.72806339 -3.14749104 5.72806339 -4.3125 8.0625 C-4.539375 8.701875 -4.76625 9.34125 -5 10 C-5.3125 7.8125 -5.3125 7.8125 -5 5 C-2.5 2.1875 -2.5 2.1875 0 0 Z " transform="translate(209,406)" style="fill: #BAE5C1;"/><path d="M0 0 C0.6875 1.6875 0.6875 1.6875 1 4 C-0.67292823 7.69805188 -2.18712958 9.55373881 -6 11 C-5.45156876 7.16098132 -3.7234735 5.63836495 -1 3 C-0.67 2.01 -0.34 1.02 0 0 Z " transform="translate(186,407)" style="fill: #DAF0DD;"/><path d="M0 0 C0 0.33 0 0.66 0 1 C-1.051875 1.12375 -2.10375 1.2475 -3.1875 1.375 C-6.45958771 1.91140782 -9.00536076 2.63880035 -12 4 C-11.05104075 1.62760188 -10.27535377 0.21634939 -8.25 -1.375 C-5.04292712 -2.26585358 -3.01185702 -1.23212333 0 0 Z " transform="translate(213,164)" style="fill: #F3EFE3;"/><path d="M0 0 C0.99 0.33 1.98 0.66 3 1 C3 3.64 3 6.28 3 9 C2.01 8.67 1.02 8.34 0 8 C0 5.36 0 2.72 0 0 Z " transform="translate(321,134)" style="fill: #BF4FC1;"/><path d="M0 0 C0.99 0.33 1.98 0.66 3 1 C2.34 3.31 1.68 5.62 1 8 C0.01 8 -0.98 8 -2 8 C-1.125 2.25 -1.125 2.25 0 0 Z " transform="translate(198,410)" style="fill: #D7EFDA;"/><path d="M0 0 C0.66 0 1.32 0 2 0 C1.45773019 3.79588866 -0.20127563 5.47211993 -3 8 C-3.33 7.01 -3.66 6.02 -4 5 C-2.1875 2.3125 -2.1875 2.3125 0 0 Z " transform="translate(302,405)" style="fill: #63C7B6;"/><path d="M0 0 C4.875 0.875 4.875 0.875 6 2 C6.04063832 3.66617115 6.042721 5.33388095 6 7 C5.34 7 4.68 7 4 7 C3.34 5.68 2.68 4.36 2 3 C1.01 3 0.02 3 -1 3 C-0.67 2.01 -0.34 1.02 0 0 Z " transform="translate(287,402)" style="fill: #F6FBFA;"/><path d="M0 0 C-0.33 2.97 -0.66 5.94 -1 9 C-1.99 8.67 -2.98 8.34 -4 8 C-2.98181818 0 -2.98181818 0 0 0 Z " transform="translate(173,397)" style="fill: #E4F4E7;"/><path d="M0 0 C0.33 0 0.66 0 1 0 C2 4 3 8 4 12 C2.0625 11.3125 2.0625 11.3125 0 10 C-1.2652614 6.39887139 -0.9392247 3.65254051 0 0 Z " transform="translate(263,119)" style="fill: #DEDDF1;"/><path d="M0 0 C0.99 0.33 1.98 0.66 3 1 C2.1875 4.4375 2.1875 4.4375 1 8 C0.01 8.33 -0.98 8.66 -2 9 C-2.125 5.625 -2.125 5.625 -2 2 C-1.34 1.34 -0.68 0.68 0 0 Z " transform="translate(273,104)" style="fill: #D2D0EC;"/><path d="M0 0 C0.99 0.33 1.98 0.66 3 1 C3 3.31 3 5.62 3 8 C2.01 7.67 1.02 7.34 0 7 C0 4.69 0 2.38 0 0 Z " transform="translate(300,155)" style="fill: #C667C8;"/><path d="M0 0 C2.31 0 4.62 0 7 0 C7 0.66 7 1.32 7 2 C4.36 2.33 1.72 2.66 -1 3 C-0.67 2.01 -0.34 1.02 0 0 Z " transform="translate(197,155)" style="fill: #C3AE57;"/><path d="M0 0 C0.99 0 1.98 0 3 0 C2.67 1.32 2.34 2.64 2 4 C1.67 3.34 1.34 2.68 1 2 C0.01 2.495 0.01 2.495 -1 3 C-0.67 2.01 -0.34 1.02 0 0 Z M-2 3 C-1.34 3.33 -0.68 3.66 0 4 C0 4.66 0 5.32 0 6 C-1.32 6.33 -2.64 6.66 -4 7 C-4 6.01 -4 5.02 -4 4 C-3.34 3.67 -2.68 3.34 -2 3 Z " transform="translate(303,408)" style="fill: #DCF1ED;"/><path d="M0 0 C3.465 1.98 3.465 1.98 7 4 C7.33 3.34 7.66 2.68 8 2 C8 2.99 8 3.98 8 5 C5.125 5.125 5.125 5.125 2 5 C0 3 0 3 0 0 Z " transform="translate(179,142)" style="fill: #FBFAF5;"/><path d="M0 0 C1.52299523 2.93720508 2.80100302 5.9168649 4 9 C3.01 9 2.02 9 1 9 C-0.4783226 6.04335481 -0.06032783 3.25770263 0 0 Z " transform="translate(272,108)" style="fill: #F1F1F9;"/><path d="M0 0 C0.99 0.33 1.98 0.66 3 1 C2.67 2.98 2.34 4.96 2 7 C1.01 7 0.02 7 -1 7 C-0.67 4.69 -0.34 2.38 0 0 Z " transform="translate(189,411)" style="fill: #D8EFDB;"/><path d="M0 0 C1.67542976 0.28604898 3.34385343 0.61781233 5 1 C5.33 2.32 5.66 3.64 6 5 C5.34 5 4.68 5 4 5 C3.67 4.34 3.34 3.68 3 3 C0.98330173 1.86649466 0.98330173 1.86649466 -1 1 C-0.67 0.67 -0.34 0.34 0 0 Z " transform="translate(261,403)" style="fill: #F8FCFB;"/></svg>